<svg id="Calque_1" data-name="Calque 1" xmlns="http://www.w3.org/2000/svg" xmlns:xlink="http://www.w3.org/1999/xlink" viewBox="0 0 106.33 42.27"><defs><style>.cls-1{fill:none;}.cls-2{clip-path:url(#clip-path);}</style><clipPath id="clip-path" transform="translate(-17.99 -50.59)"><rect class="cls-1" x="17.99" y="50.59" width="106.74" height="42.27"/></clipPath></defs><title>Logo AP</title><g class="cls-2"><path d="M119.47,52.17c-2.25-1.06-5.5-1.58-9.76-1.58H69.93L52.79,71.14H47.31a55.58,55.58,0,0,0-14.37,1.75q-8.31,2.27-12.41,7a9.2,9.2,0,0,0-2.54,6,6,6,0,0,0,3.42,5.49,13.85,13.85,0,0,0,6.67,1.47q13.61,0,27.85-17.19h8.68L59.3,90.37H69.42l5.31-14.7h16.8q5.46,0,6.9-4.53H76.26L81,57.71h24a13.63,13.63,0,0,1,4.89.6c1.51.66,2.21,2,2.12,4.15-.15,3.28.9,4.21-3.14,6.5-3.27,1.86-4.41,1.46-8.07,2.29,0,0-.84,1.6-1.31,2.84s-2.29,1.74-2.29,1.74c7.12-.3,11-1.09,16.25-3.49,7-3.19,10-6.87,10.72-12.31.48-3.72-1.6-6.37-4.78-7.86M41.88,82.59q-5.27,4-8.76,4-2.55,0-2.55-2.43,0-2.85,3.53-5.4,4.27-3.06,14.88-3a32.14,32.14,0,0,1-7.1,6.92M66,71.14H59.69L72.08,55.28Z" transform="translate(-17.99 -50.59)"/></g></svg>