<?xml version="1.0" encoding="utf-8"?>
<!-- Generator: Adobe Illustrator 22.0.0, SVG Export Plug-In . SVG Version: 6.00 Build 0)  -->
<svg version="1.0" id="Calque_1" xmlns="http://www.w3.org/2000/svg" xmlns:xlink="http://www.w3.org/1999/xlink" x="0px" y="0px"
	 viewBox="0 0 141.7 141.7" style="enable-background:new 0 0 141.7 141.7;" xml:space="preserve">
<style type="text/css">
	.st0{fill:#FFFFFF;}
</style>
<g>
	<path class="st0" d="M119.5,52.2c-2.2-1.1-5.5-1.6-9.8-1.6H83.6h-3H69.9L52.8,71.1h-5.5c-5.2,0-10,0.6-14.4,1.8
		c-5.5,1.5-9.7,3.8-12.4,7c-1.7,2-2.5,4-2.5,6c0,2.4,1.1,4.2,3.4,5.5c1.8,1,4,1.5,6.7,1.5c9.1,0,18.3-5.7,27.8-17.2h8.7l-5.3,14.7
		h10.1l5.3-14.7h16.8c3.6,0,5.9-1.5,6.9-4.5H76.3L81,57.7h24c2.4,0,4,0.2,4.9,0.6c1.5,0.7,2.2,2,2.1,4.2c-0.2,3.3,0.9,4.2-3.1,6.5
		c-3.3,1.9-4.4,1.5-8.1,2.3c0,0-0.8,1.6-1.3,2.8c-0.5,1.2-2.3,1.7-2.3,1.7c7.1-0.3,11-1.1,16.2-3.5c7-3.2,10-6.9,10.7-12.3
		C124.7,56.3,122.7,53.7,119.5,52.2 M41.9,82.6c-3.5,2.6-6.4,4-8.8,4c-1.7,0-2.5-0.8-2.5-2.4c0-1.9,1.2-3.7,3.5-5.4
		c2.8-2,7.8-3.1,14.9-3.1C47.3,78,45,80.3,41.9,82.6 M66,71.1h-6.3l12.4-15.9L66,71.1z"/>
</g>
</svg>
